Coordinates
version=1
nRows=20
nColumns=38
inDegrees=no

Units are S.I. units (second, meters, Newtons, ...)
If the header above contains a line with 'inDegrees', this indicates whether rotational values are in degrees (yes) or radians (no).

endheader
time	pelvis_tilt	pelvis_list	pelvis_rotation	pelvis_tx	pelvis_ty	pelvis_tz	hip_flexion_r	hip_adduction_r	hip_rotation_r	knee_angle_r	ankle_angle_r	subtalar_angle_r	mtp_angle_r	hip_flexion_l	hip_adduction_l	hip_rotation_l	knee_angle_l	ankle_angle_l	subtalar_angle_l	mtp_angle_l	lumbar_extension	lumbar_bending	lumbar_rotation	arm_flex_r	arm_add_r	arm_rot_r	elbow_flex_r	pro_sup_r	wrist_flex_r	wrist_dev_r	arm_flex_l	arm_add_l	arm_rot_l	elbow_flex_l	pro_sup_l	wrist_flex_l	wrist_dev_l
0	2.89725	1.37075	-1.35389	0.735224	-0.460624	0.947062	-0.156804	0.0452183	-0.272773	0.213787	0.0140691	0	0	-0.0520405	-0.162055	-0.348216	0.548133	0.141498	0	0	-0.35411	0.0729085	0.15656	0.00377261	-0.238236	0.1783	0.302205	0	0	0	-0.0602669	-0.163318	0.0962401	0.493663	1.5708	0	0
0.01	2.91081	1.36466	-1.36792	0.735548	-0.46041	0.947611	-0.169147	0.0454805	-0.271254	0.204633	0.0117549	0	0	-0.0610142	-0.160971	-0.347394	0.535512	0.148977	0	0	-0.360816	0.0751419	0.152587	-0.0253738	-0.304454	0.726122	0.479666	0.926005	0	0	-0.0525286	-0.160245	0.0911736	0.498323	1.5708	0	0
0.02	2.91598	1.36375	-1.3746	0.73599	-0.460163	0.947915	-0.174149	0.045819	-0.270317	0.197955	0.00981061	0	0	-0.0648873	-0.159937	-0.346459	0.520486	0.154403	0	0	-0.362034	0.0739051	0.154314	-0.0163293	-0.303493	0.731368	0.476833	0.921004	0	0	-0.0408652	-0.158997	0.0987774	0.500332	1.5708	0	0
0.03	2.92091	1.36248	-1.38092	0.736343	-0.460023	0.948264	-0.179057	0.0460942	-0.269019	0.191881	0.00807049	0	0	-0.0702821	-0.158328	-0.345154	0.501836	0.156342	0	0	-0.363718	0.0726089	0.155828	-0.00654864	-0.300929	0.729955	0.47118	0.916681	0	0	-0.0285005	-0.158793	0.112693	0.502762	1.5708	0	0
0.04	2.92711	1.36108	-1.38885	0.736617	-0.459948	0.948661	-0.183644	0.0457761	-0.266682	0.18662	0.0061476	0	0	-0.0769741	-0.155666	-0.343522	0.480151	0.15453	0	0	-0.365602	0.0709755	0.15716	0.00405777	-0.298082	0.730899	0.464089	0.922385	0	0	-0.0170408	-0.159745	0.130222	0.50734	1.5708	0	0
0.05	2.94399	1.35429	-1.40574	0.736896	-0.460028	0.949162	-0.194737	0.0443855	-0.267042	0.180899	0.00536175	0	0	-0.0904697	-0.151522	-0.340542	0.456238	0.15207	0	0	-0.373336	0.0648154	0.157619	0.0142592	-0.292634	0.729622	0.455505	0.963882	0	0	-0.0155663	-0.200919	0.265175	0.5637	1.5162	0	0
0.06	3.00888	1.36458	-1.47217	0.737227	-0.459107	0.947542	-0.179929	0.0267134	-0.263974	0.19609	0.0212235	0	0	-0.0889699	-0.131571	-0.335008	0.430215	0.150997	0	0	-0.360871	0.0477589	0.153715	0.0215981	-0.286144	0.735245	0.447919	0.98749	0	0	-0.00838992	-0.205296	0.2732	0.574065	1.54026	0	0
0.07	3.01833	1.36344	-1.48116	0.73709	-0.458819	0.947753	-0.184213	0.0251133	-0.265077	0.191701	0.0203593	0	0	-0.0982402	-0.125901	-0.327692	0.402636	0.14919	0	0	-0.361329	0.0458266	0.150905	0.0315824	-0.283973	0.740767	0.443171	1.01372	0	0	0.00234842	-0.205668	0.279635	0.579188	1.56187	0	0
0.08	3.02309	1.36336	-1.48542	0.736848	-0.458571	0.947765	-0.186263	0.0240753	-0.266019	0.189053	0.0202975	0	0	-0.105546	-0.121442	-0.321353	0.377111	0.14773	0	0	-0.360471	0.0448183	0.148093	0.0408442	-0.283084	0.750978	0.440751	1.03174	0	0	0.0126958	-0.206849	0.289476	0.585523	1.5708	0	0
0.09	3.02408	1.36422	-1.48581	0.736481	-0.458294	0.947615	-0.186631	0.023501	-0.266811	0.187555	0.0206301	0	0	-0.110382	-0.118365	-0.316906	0.355422	0.145665	0	0	-0.358341	0.044658	0.145129	0.0494218	-0.282392	0.75759	0.440138	1.03979	0	0	0.0218351	-0.208182	0.299019	0.593284	1.5708	0	0
0.1	2.95284	1.34052	-1.43683	0.739176	-0.461158	0.95061	-0.217571	0.0456918	-0.246027	0.159989	-0.00490996	0	0	-0.143072	-0.136338	-0.34267	0.333902	0.135457	0	0	-0.390966	0.0544474	0.168545	0.0686855	-0.286445	0.759907	0.443636	1.05504	0	0	0.041287	-0.207203	0.309414	0.603225	1.5708	0	0
0.11	3.0195	1.37128	-1.4865	0.735848	-0.459055	0.946922	-0.185388	0.023247	-0.27317	0.170674	0.0140421	0	0	-0.110417	-0.112841	-0.315928	0.324166	0.126429	0	0	-0.351674	0.0437861	0.144639	0.0680735	-0.282888	0.759953	0.441255	1.05854	0	0	0.0424968	-0.208907	0.314848	0.607742	1.5708	0	0
0.12	2.95544	1.35948	-1.42078	0.735057	-0.459506	0.948808	-0.208976	0.0417758	-0.274555	0.143404	-0.00652215	0	0	-0.124543	-0.128101	-0.320469	0.3146	0.109863	0	0	-0.364231	0.0601299	0.14351	0.0787653	-0.286621	0.762623	0.444886	1.06026	0	0	0.0543133	-0.206284	0.319663	0.612714	1.5708	0	0
0.13	2.87042	1.33058	-1.34809	0.7379	-0.462444	0.952008	-0.233857	0.0713309	-0.252015	0.137192	-0.0259119	0	0	-0.161791	-0.156333	-0.357787	0.295797	0.0942694	0	0	-0.400109	0.0766579	0.158976	0.0975428	-0.288531	0.765664	0.451645	1.05699	0	0	0.0729835	-0.209897	0.326828	0.626479	1.5708	0	0
0.14	2.99553	1.3784	-1.45255	0.73399	-0.459441	0.945846	-0.175029	0.0273952	-0.28159	0.175446	0.0162537	0	0	-0.11339	-0.11447	-0.330905	0.294465	0.0970869	0	0	-0.341927	0.0486087	0.125967	0.090694	-0.281625	0.763002	0.450207	1.05416	0	0	0.067873	-0.216883	0.331583	0.636891	1.5708	0	0
0.15	2.99753	1.37704	-1.45198	0.733041	-0.459244	0.945975	-0.178107	0.0270758	-0.282262	0.1733	0.0157319	0	0	-0.120105	-0.111148	-0.329817	0.28453	0.0941358	0	0	-0.342223	0.0489376	0.119651	0.0966478	-0.282027	0.762541	0.454663	1.04939	0	0	0.0749302	-0.219117	0.336524	0.645047	1.5708	0	0
0.16	3.0043	1.37429	-1.45597	0.732134	-0.458893	0.946221	-0.184376	0.0268427	-0.280812	0.168557	0.0146001	0	0	-0.12946	-0.106232	-0.326974	0.271199	0.0846157	0	0	-0.343734	0.0482721	0.112769	0.101667	-0.282307	0.761017	0.46047	1.04301	0	0	0.081122	-0.221991	0.341222	0.652034	1.5708	0	0
0.17	3.02902	1.36757	-1.48422	0.730917	-0.457596	0.946952	-0.195418	0.0195711	-0.280747	0.165676	0.0159001	0	0	-0.141809	-0.0968821	-0.321807	0.266279	0.076886	0	0	-0.347779	0.043784	0.111038	0.103549	-0.28513	0.758603	0.468209	1.03658	0	0	0.0856061	-0.221683	0.342385	0.657932	1.5708	0	0
0.18	2.99899	1.36717	-1.45771	0.730793	-0.458248	0.947393	-0.190527	0.0223625	-0.296687	0.172201	0.0152438	0	0	-0.145173	-0.100722	-0.325825	0.258158	0.0704188	0	0	-0.349022	0.0481031	0.111989	0.109665	-0.286248	0.756443	0.473755	1.03064	0	0	0.0945583	-0.22184	0.342438	0.662355	1.5708	0	0
0.19	2.93602	1.36743	-1.40238	0.730975	-0.460101	0.948166	-0.170975	0.0232306	-0.347547	0.201576	0.0208173	0	0	-0.143327	-0.112618	-0.334101	0.255939	0.0673128	0	0	-0.351946	0.0584427	0.118177	0.118925	-0.289804	0.760022	0.480508	1.0045	0	0	0.106187	-0.218615	0.337537	0.663865	1.5708	0	0
